# xmcd
#
# Track frame offsets:
#	150
#	17761
#	30826
#	47249
#	61618
#	77314
#	93854
#	109863
#	127800
#	143232
#	160268
#	176834
#
# Disc length: 2532 seconds
#
# Revision: 1
# Processed by: cddbd v1.5.2PL0 Copyright (c) Steve Scherf et al.
# Submitted via: audiograbber 1.83.01
#
DISCID=8709e20c
DTITLE=Medina - Welcome To Medina
DYEAR=2010
DGENRE=Pop
TTITLE0=Medina - Welcome To Medina
TTITLE1=Medina - You and I
TTITLE2=Medina - Addiction
TTITLE3=Medina - Lonely
TTITLE4=Medina - 6 AM
TTITLE5=Medina - In Your Arms
TTITLE6=Medina - Happy
TTITLE7=Medina - The One
TTITLE8=Medina - Gutter
TTITLE9=Medina - Selfish
TTITLE10=Medina - Execute Me
TTITLE11=Medina - You and I (Acoustic Mix)
EXTD=
EXTT0=
EXTT1=
EXTT2=
EXTT3=
EXTT4=
EXTT5=
EXTT6=
EXTT7=
EXTT8=
EXTT9=
EXTT10=
EXTT11=
PLAYORDER=
